HIERARCHY
ROOT root
{
	OFFSET 0.000000 0.000000 0.000000
	CHANNELS 6 Xposition Yposition Zposition Zrotation Yrotation Xrotation
	JOINT lhip
	{
		OFFSET 0.058581 -0.082280 -0.017664
		CHANNELS 3 Zrotation Yrotation Xrotation
		JOINT lknee
		{
			OFFSET 0.043451 -0.386469 0.008037
			CHANNELS 3 Zrotation Yrotation Xrotation
			JOINT lankle
			{
				OFFSET -0.014790 -0.426874 -0.037428
				CHANNELS 3 Zrotation Yrotation Xrotation
				JOINT ltoe
				{
					OFFSET 0.041054 -0.060286 0.122042
					CHANNELS 3 Zrotation Yrotation Xrotation
					End Site
					{
						OFFSET 0.000000 0.000000 0.000000
					}
				}
			}
		}
	}
	JOINT rhip
	{
		OFFSET -0.060310 -0.090513 -0.013543
		CHANNELS 3 Zrotation Yrotation Xrotation
		JOINT rknee
		{
			OFFSET -0.043257 -0.383688 -0.004843
			CHANNELS 3 Zrotation Yrotation Xrotation
			JOINT rankle
			{
				OFFSET 0.019056 -0.420046 -0.034562
				CHANNELS 3 Zrotation Yrotation Xrotation
				JOINT rtoe
				{
					OFFSET -0.034840 -0.062106 0.130323
					CHANNELS 3 Zrotation Yrotation Xrotation
					End Site
					{
						OFFSET 0.000000 0.000000 0.000000
					}
				}
			}
		}
	}
	JOINT lowerback
	{
		OFFSET 0.004439 0.124404 -0.038385
		CHANNELS 3 Zrotation Yrotation Xrotation
		JOINT upperback
		{
			OFFSET 0.004488 0.137956 0.026820
			CHANNELS 3 Zrotation Yrotation Xrotation
			JOINT chest
			{
				OFFSET -0.002265 0.056032 0.002855
				CHANNELS 3 Zrotation Yrotation Xrotation
				JOINT lowerneck
				{
					OFFSET -0.013390 0.211636 -0.033468
					CHANNELS 3 Zrotation Yrotation Xrotation
					JOINT upperneck
					{
						OFFSET 0.010113 0.088937 0.050410
						CHANNELS 3 Zrotation Yrotation Xrotation
						End Site
						{
							OFFSET 0.000000 0.000000 0.000000
						}
					}
				}
				JOINT lclavicle
				{
					OFFSET 0.071702 0.114000 -0.018898
					CHANNELS 3 Zrotation Yrotation Xrotation
					JOINT lshoulder
					{
						OFFSET 0.122921 0.045205 -0.019046
						CHANNELS 3 Zrotation Yrotation Xrotation
						JOINT lelbow
						{
							OFFSET 0.255332 -0.015649 -0.022946
							CHANNELS 3 Zrotation Yrotation Xrotation
							JOINT lwrist
							{
								OFFSET 0.265709 0.012698 -0.007375
								CHANNELS 3 Zrotation Yrotation Xrotation
								End Site
								{
									OFFSET 0.000000 0.000000 0.000000
								}
							}
						}
					}
				}
				JOINT rclavicle
				{
					OFFSET -0.082954 0.112472 -0.023707
					CHANNELS 3 Zrotation Yrotation Xrotation
					JOINT rshoulder
					{
						OFFSET -0.113228 0.046853 -0.008472
						CHANNELS 3 Zrotation Yrotation Xrotation
						JOINT relbow
						{
							OFFSET -0.260127 -0.014369 -0.031269
							CHANNELS 3 Zrotation Yrotation Xrotation
							JOINT rwrist
							{
								OFFSET -0.269108 0.006794 -0.006027
								CHANNELS 3 Zrotation Yrotation Xrotation
								End Site
								{
									OFFSET 0.000000 0.000000 0.000000
								}
							}
						}
					}
				}
			}
		}
	}
}
MOTION
Frames: 13
Frame Time: 0.033333
-0.308699 0.317797 0.931688 88.118440 1.664036 96.891826 7.420186 2.800350 -41.635283 -7.709438 0.083994 35.757958 -0.082955 -1.616737 -8.077557 0.000000 -0.000000 0.000000 -10.088774 -9.780091 -38.532626 -2.156111 -10.262240 41.248408 10.391570 -5.596454 -5.913121 0.000000 -0.000000 0.000000 3.880403 3.571036 51.910562 0.232673 2.084720 -1.082528 2.908652 4.491685 5.659868 -10.971530 5.886546 3.763107 0.022803 -4.411426 8.690568 -6.872893 -18.663991 -4.175240 -49.315794 -15.891848 25.974990 -38.547603 -60.189804 68.080469 49.112848 -28.839635 -11.429901 12.723848 28.054468 -2.716803 31.967700 31.447596 0.613339 -10.352143 29.150553 -12.276836 -23.143827 13.007860 5.857351 
-0.308074 0.315660 0.923856 89.881839 0.929387 98.436890 6.575220 2.560941 -44.802915 -8.115534 -0.129385 37.650046 0.001928 -2.213821 -8.106870 0.000000 -0.000000 0.000000 -10.495371 -11.185878 -40.692689 -2.688725 -10.294107 43.640952 9.437676 -4.653876 -7.236138 0.000000 -0.000000 0.000000 5.564291 2.862489 54.978935 -0.616606 2.866609 -2.168240 2.850348 5.261721 6.150906 -11.777637 2.431931 3.322704 1.568037 -5.708242 7.010190 -6.298423 -19.739940 -5.537679 -48.972326 -15.478587 26.739616 -41.866198 -62.679991 71.812949 52.002913 -29.148402 -12.226476 10.175212 30.064511 -3.515818 26.723965 30.290320 -3.972005 -9.742362 27.993344 -14.228867 -23.969885 13.437353 6.348118 
-0.307147 0.313313 0.917007 91.235572 0.386841 100.068189 6.085201 2.374696 -47.704663 -8.357507 -0.070151 39.068326 0.226532 -2.747531 -8.382647 0.000000 -0.000000 0.000000 -10.726225 -12.138563 -43.414231 -2.701895 -10.182788 45.665933 9.927755 -6.301610 -7.477824 0.000000 -0.000000 0.000000 6.935921 2.117190 57.851883 -1.447585 4.087593 -2.889400 3.019330 5.896249 6.294240 -13.131209 -1.579180 3.267161 2.568124 -5.633024 4.814580 -6.676860 -20.771619 -6.044898 -48.131783 -15.066031 27.120972 -46.121869 -65.180096 76.209897 55.150943 -29.627877 -12.403807 7.822682 32.586920 -3.786004 20.123889 28.158395 -8.625623 -8.252124 26.073060 -17.272680 -25.964238 14.365305 8.184658 
-0.307114 0.311632 0.910465 92.464207 -0.534944 102.187134 5.653977 1.570521 -50.841587 -8.696463 0.235458 39.781520 0.271752 -2.670346 -8.004885 0.000000 -0.000000 0.000000 -11.541915 -13.041503 -46.212007 -2.855883 -10.713980 47.352185 9.786962 -6.832102 -8.598578 0.000000 -0.000000 0.000000 8.141510 1.506529 60.064348 -2.344970 5.015142 -3.298362 3.071636 6.345865 6.209772 -13.897476 -5.176276 3.231167 3.806191 -6.118138 2.633345 -6.657193 -21.719215 -6.489232 -47.841516 -14.379442 27.660700 -50.816326 -67.769089 81.707207 57.267734 -30.283587 -12.811336 5.055420 34.801134 -3.695677 13.891842 25.490145 -13.408973 -6.712431 23.875711 -19.624950 -26.611250 15.176720 8.943071 
-0.305250 0.309655 0.905650 93.789171 -0.946559 103.755118 5.487228 1.266724 -53.185107 -9.016990 0.140185 40.384901 0.202996 -2.993319 -7.746663 0.000000 -0.000000 0.000000 -11.844611 -13.982477 -47.963592 -2.534017 -10.820376 48.489800 8.914145 -7.251504 -9.711750 0.000000 -0.000000 0.000000 9.806227 0.786821 62.079024 -3.068895 6.098811 -3.075940 3.149557 6.788590 6.442272 -14.310614 -8.993328 3.361185 4.916149 -6.520063 0.588354 -6.388882 -23.058766 -6.910627 -47.808385 -14.079701 28.123821 -55.137815 -70.096877 86.326144 59.565226 -31.156038 -12.369540 1.912170 36.689474 -4.038187 8.031376 21.711211 -17.650932 -4.481497 21.618255 -21.053003 -27.610194 16.294801 10.520726 
-0.303649 0.307985 0.901040 94.951451 -1.674962 105.799495 5.174050 0.589513 -55.819897 -9.203494 0.182718 40.746907 0.220142 -3.041991 -7.327748 0.000000 -0.000000 0.000000 -12.602497 -15.073729 -50.239718 -2.392470 -11.710242 49.828555 9.856174 -7.587381 -10.101683 0.000000 -0.000000 0.000000 10.854239 0.298818 63.531775 -3.634972 7.031962 -3.063928 3.272876 7.065652 6.908442 -14.179002 -12.110333 3.098925 5.582590 -6.865196 -1.644317 -5.798745 -23.232652 -7.442986 -48.280708 -14.477116 28.697498 -59.275456 -71.415598 91.698940 60.811949 -31.555752 -12.765884 -1.277503 37.291295 -4.871971 3.123425 19.140277 -20.946331 -2.355073 18.832109 -21.973263 -28.762768 17.314248 11.510189 
-0.301268 0.306551 0.895392 95.746360 -2.176861 108.040647 5.482641 0.236104 -58.437083 -9.508676 0.767499 40.723012 0.211277 -3.322574 -7.100990 0.000000 -0.000000 0.000000 -12.977925 -16.132827 -52.714833 -2.031452 -12.251210 50.953591 9.787384 -7.686662 -10.592236 0.000000 -0.000000 0.000000 11.804202 0.214945 64.112203 -4.035387 7.817071 -2.448772 3.392438 7.189970 7.025367 -14.019886 -14.607745 3.218092 6.415600 -7.195835 -3.902169 -5.603159 -23.306122 -7.465973 -48.639893 -14.450376 28.962236 -64.814923 -72.925130 98.321522 61.540948 -32.127737 -12.496826 -3.610102 37.736128 -5.078008 -1.349098 16.649034 -24.169739 -0.699953 16.463102 -22.557738 -29.439727 17.884432 12.035288 
-0.297175 0.305236 0.889880 96.394839 -2.582876 109.899678 5.500257 0.442585 -60.752399 -9.682712 1.430480 41.143345 0.200734 -3.941730 -6.726204 0.000000 -0.000000 0.000000 -13.171407 -17.210552 -54.650239 -1.789001 -12.785097 51.951466 9.948558 -7.549733 -11.032805 0.000000 -0.000000 0.000000 12.595966 -0.108941 65.126540 -4.671612 8.348692 -2.413157 3.394478 7.289371 7.248162 -14.063256 -16.756411 3.517985 7.401817 -7.202106 -5.868064 -5.463852 -23.209550 -7.454309 -48.751763 -13.975804 28.869622 -71.024385 -73.869411 105.747058 62.307884 -32.317465 -12.556461 -5.562778 38.063066 -5.663270 -4.850104 14.518044 -27.277828 0.610010 14.588993 -23.216695 -29.834030 18.336269 12.512394 
-0.292639 0.304567 0.884702 97.069196 -2.938520 111.713465 5.756044 0.522904 -62.769373 -10.064144 2.120335 41.082786 -0.134874 -4.387599 -6.511481 0.000000 -0.000000 0.000000 -13.515707 -18.090233 -56.371174 -1.512818 -13.476463 52.772356 9.972510 -7.652177 -11.401182 0.000000 -0.000000 0.000000 13.273388 -0.476470 65.735556 -5.059742 8.800499 -2.135091 3.306353 7.333353 7.414237 -13.781415 -18.205190 3.171712 7.725966 -7.599224 -7.096180 -5.742556 -22.704719 -7.561129 -48.458007 -13.786401 28.947541 -77.018084 -74.145670 112.377096 62.749956 -32.425835 -12.445132 -6.386534 38.141424 -5.611009 -8.620042 12.836295 -30.008770 1.567306 13.283757 -24.171629 -32.141847 19.435000 12.801880 
-0.287678 0.303806 0.879921 97.604751 -3.253370 113.340031 5.848254 0.715894 -64.591258 -10.300918 2.739479 41.333211 -0.349573 -5.002787 -6.313588 0.000000 -0.000000 0.000000 -13.756966 -18.870205 -57.932499 -1.456585 -14.047862 53.613303 10.032993 -7.408210 -11.745878 0.000000 -0.000000 0.000000 13.717235 -0.705170 66.445637 -5.436111 9.036719 -2.094769 3.253386 7.369350 7.587170 -13.550623 -19.122806 2.850874 8.232315 -7.896358 -8.323749 -5.559163 -22.294750 -7.687607 -48.515469 -13.341255 28.732472 -82.950718 -74.334302 119.126254 63.111080 -32.799672 -12.442861 -7.414603 38.011979 -5.864204 -10.811683 11.488915 -32.025636 1.492613 13.211939 -25.140811 -33.572680 20.447967 13.368649 
-0.283239 0.304487 0.875654 98.119396 -3.660854 114.711458 5.935935 0.451025 -66.119291 -10.401530 3.246838 41.384242 -0.460894 -5.245118 -5.997636 0.000000 -0.000000 0.000000 -14.115260 -19.654421 -59.159235 -1.237677 -14.362295 54.198023 10.320667 -7.551070 -12.033508 0.000000 -0.000000 0.000000 14.284269 -0.853913 66.648532 -5.459559 9.265831 -1.411840 3.243682 7.273235 7.866773 -13.218486 -19.944137 2.158651 8.270771 -8.369260 -9.177509 -5.635531 -22.100465 -7.572817 -48.458999 -13.521604 28.937921 -87.690494 -74.804394 123.420860 63.423217 -33.832179 -11.778722 -7.832446 37.712654 -5.349899 -13.845412 9.651063 -33.155425 2.106890 13.676362 -26.550805 -35.131388 21.294397 13.463454 
-0.279541 0.305094 0.871645 98.325626 -3.842050 116.309056 6.342657 0.377151 -67.874190 -10.569750 3.878948 41.553404 -0.515356 -5.180122 -5.853421 0.000000 -0.000000 0.000000 -14.372396 -19.947328 -60.670816 -1.170744 -14.887135 54.698110 10.454572 -7.683135 -12.258872 0.000000 -0.000000 0.000000 14.431516 -0.767175 66.685332 -5.617580 9.550337 -1.294908 3.224279 7.297376 8.108551 -13.041233 -20.432621 1.933147 8.455529 -8.630509 -9.771817 -5.373259 -21.784172 -7.520062 -48.673868 -13.444796 28.974914 -91.396424 -74.904809 127.600414 64.918330 -34.178902 -12.029557 -8.536637 37.331655 -5.361642 -15.123725 8.707570 -33.954384 1.757803 14.102154 -26.648892 -36.126010 21.852192 13.341446 
-0.275521 0.306870 0.868726 98.550804 -4.006731 117.661801 6.610229 0.136010 -69.324059 -10.543932 4.312966 41.811740 -0.602837 -5.081078 -5.901136 0.000000 -0.000000 0.000000 -14.541891 -20.305382 -61.809458 -1.215991 -15.260133 55.092797 10.704018 -7.764845 -12.596254 0.000000 -0.000000 0.000000 14.762268 -0.833147 66.750987 -5.744766 9.682788 -1.169243 3.177742 7.248694 8.285133 -12.962841 -20.748647 1.897734 8.578928 -8.743530 -10.695581 -5.360575 -21.602042 -7.515757 -48.732576 -13.446372 29.121326 -94.988478 -74.895991 131.451584 65.884302 -34.544313 -12.022843 -8.945852 37.100697 -5.306550 -16.475790 7.814916 -34.352925 1.744923 14.270115 -26.252225 -37.332593 22.739723 14.225579 
